<?xml version="1.0" ?><svg viewBox="0 0 436.63 317.15" xmlns="http://www.w3.org/2000/svg"><title/><g data-name="Layer 2" id="Layer_2"><g data-name="chichen, itza, mayan, stone, travel, temple, pyramid, maya, tourism, landmark, mexico" id="chichen_itza_mayan_stone_travel_temple_pyramid_maya_tourism_landmark_mexico"><path d="M182.69,10.93a5.47,5.47,0,0,0,0-10.93h-.5a5.47,5.47,0,1,0,0,10.93Z"/><path d="M202,226.07h-.69a5.47,5.47,0,0,0,0,10.93H202a5.47,5.47,0,1,0,0-10.93Z"/><path d="M406.29,306.22h-135v-42.5h16.45v29a5.47,5.47,0,0,0,10.93,0v-29h93.32v27.47a5.47,5.47,0,0,0,10.94,0V258.25a5.46,5.46,0,0,0-5.47-5.46H298.62V210.28h59.09v27.48a5.47,5.47,0,0,0,10.93,0V204.82a5.47,5.47,0,0,0-5.47-5.47H298.62v-42.5h21.6v27.47a5.47,5.47,0,1,0,10.93,0V151.38a5.46,5.46,0,0,0-5.47-5.46H298.62V98a5.47,5.47,0,0,0-5.47-5.47H271.24V53.34a5.47,5.47,0,1,0-10.93,0V92.48H235.45V61.92A5.46,5.46,0,0,0,230,56.46H197.16a5.46,5.46,0,0,0-5.47,5.46V92.48H166.82V37.29h113.4a5.47,5.47,0,0,0,0-10.93h-9V10.93h9a5.47,5.47,0,0,0,0-10.93h-75.9a5.47,5.47,0,0,0,0,10.93h56V26.36H166.82V5.47A5.47,5.47,0,0,0,161.36,0H146.92a5.47,5.47,0,1,0,0,10.93h9V26.36h-9a5.47,5.47,0,1,0,0,10.93h9V92.48H134A5.46,5.46,0,0,0,128.52,98v48H101.45A5.45,5.45,0,0,0,96,151.38v32.94a5.47,5.47,0,1,0,10.93,0V156.85h49v42.5H139.45V171.22a5.47,5.47,0,1,0-10.93,0v28.13H64a5.46,5.46,0,0,0-5.46,5.47v32.94a5.47,5.47,0,0,0,10.93,0V210.28h59.09v42.51H29.73a5.46,5.46,0,0,0-5.47,5.46v32.94a5.47,5.47,0,1,0,10.93,0V263.72h93.33v42.5H5.47a5.47,5.47,0,1,0,0,10.93H406.29a5.47,5.47,0,1,0,0-10.93ZM166.82,290.44h93.49v15.78H166.82Zm93.49-10.94H166.82V263.72h93.49ZM166.82,237H178.7a5.47,5.47,0,0,0,0-10.93H166.82V210.28h93.49v15.79H221.79a5.47,5.47,0,1,0,0,10.93h38.52v15.79H166.82Zm120.87,15.79H271.24V210.28h16.45Zm0-53.44H271.24v-42.5h16.45Zm0-53.43H271.24V103.41h16.45ZM166.82,130.13h77a5.47,5.47,0,1,0,0-10.93h-77V103.41h93.49v42.51H166.82Zm35.8-62.74h21.89V92.48H202.62Zm-63.17,78.53V103.41h16.44v42.51Zm120.86,10.93v15.78H166.82V156.85Zm-93.49,26.72h93.49v15.78H166.82Zm-27.37,26.71h16.44v42.51H139.45Zm0,53.44h16.44v42.5H139.45Z"/><path d="M431.16,306.22h-6.53a5.47,5.47,0,1,0,0,10.93h6.53a5.47,5.47,0,1,0,0-10.93Z"/></g></g></svg>