<svg version="1" xmlns="http://www.w3.org/2000/svg" width="682.667" height="682.667" viewBox="0 0 512.000000 512.000000"><path d="M31 256v225h450V31H31v225zM197.5 82c13.9 1.6 12.5-.6 12.5 20.1 0 16.7-.1 18-1.7 17.5-1-.2-3.3-.7-5-1.1l-3.3-.7v11.3l-7.2-.8c-11.7-1.3-22.7-.8-24.6 1.1-1.4 1.3-1.7 4.4-2 16.1l-.4 14.5H205v34h-10v10h-29v163h-10v10h-45V204H77v-34h9v-10h25v-10.5c0-21.5 4.4-33.7 17-47.2s20.8-18.2 35.3-20.3c7.8-1.1 24.1-1.1 34.2 0zm166.4 74.6c11.2 2.3 23 7 31.3 12.4 9.6 6.3 21.4 18.8 27.2 28.7 24.6 41.9 21.4 108.2-6.8 143.7-3.1 3.8-10.5 11.5-16.6 17.2-9 8.3-12.9 11.1-20.3 14.8-14.5 7.1-19.4 8.1-39.7 8-14.8 0-18.7-.4-25.5-2.2-10-2.8-21.4-8.1-28.2-13.3L280 362l-.2 40.7-.3 40.8-4.7.3-4.8.3v8.9h-46V170h10v-10h43V185.3l9.3-8.9c10.1-9.8 18.3-14.7 30.4-18.4 13.7-4.1 30.9-4.6 47.2-1.4z"/><path d="M310 202.6c-8.5 2.2-16.2 6.6-19.2 11-12.4 17.7-16.3 54.1-8.6 79.4 6.8 22.3 22.9 38.2 42.6 42.1 8.5 1.6 23.1.7 30.2-2 10.9-4.1 14.4-7.1 18.9-16.3 7.1-14.4 8.5-21.4 8.5-42.8 0-17.3-.2-19.1-2.8-27.5-7.1-23.3-21.5-39.2-40-44.1-6.6-1.8-22.6-1.7-29.6.2z"/></svg>