<?xml version="1.0" ?><svg viewBox="0 0 401.07 439.47" xmlns="http://www.w3.org/2000/svg"><title/><g data-name="Layer 2" id="Layer_2"><g data-name="moai, chile, stone, island, statue, easter, rock, head, sculpture, landmark, travel" id="moai_chile_stone_island_statue_easter_rock_head_sculpture_landmark_travel"><path d="M72.5,281.31a5.47,5.47,0,1,0,4-10.17,20.75,20.75,0,0,1-12.63-22.89c4.73-27,7.66-57.94,8.7-91.87a5.46,5.46,0,1,0-10.92-.33c-1,33.41-3.91,63.8-8.54,90.31A31.73,31.73,0,0,0,72.5,281.31Z"/><path d="M176.23,271a5.44,5.44,0,0,0-5.78-5.13c-34.73,2.08-51.28,13.11-52,13.58a5.47,5.47,0,0,0,6.13,9.05c.14-.1,15.09-9.83,46.49-11.71A5.46,5.46,0,0,0,176.23,271Z"/><path d="M146,300.57a5.53,5.53,0,0,0,1.86-.33c.17-.06,17.4-6.17,40.76-5.09a138.47,138.47,0,0,1,27.61,5.16,5.47,5.47,0,0,0,3.29-10.43,148.09,148.09,0,0,0-30.15-5.64h-.14c-25.57-1.21-44.3,5.43-45.08,5.72A5.47,5.47,0,0,0,146,300.57Z"/><path d="M242.27,289.41a5.46,5.46,0,0,0,3.08-10c-.68-.47-17.24-11.5-52-13.58a5.47,5.47,0,0,0-.65,10.92c31.32,1.87,46.27,11.56,46.5,11.71A5.46,5.46,0,0,0,242.27,289.41Z"/><path d="M190.56,243a5.47,5.47,0,0,0,5.47,5.47h34.2A5.47,5.47,0,0,0,235.7,243v-4.74a32.3,32.3,0,0,0-6.28-19.07l-27.1-36.71V128.68c9.21,5.21,18.57,7.84,27.91,7.84a70.47,70.47,0,0,0,19.16-2.44,5.47,5.47,0,1,0-3-10.52,59.42,59.42,0,0,1-16.18,2c-9.18,0-18.57-3.31-27.91-9.83v-6.83a5.47,5.47,0,1,0-10.94,0v75.3a5.52,5.52,0,0,0,1.07,3.25l28.17,38.15a21.33,21.33,0,0,1,4.13,11.85H196A5.47,5.47,0,0,0,190.56,243Z"/><path d="M137.81,16a5.68,5.68,0,0,0,1.41-.18c1.43-.38,2.85-.73,4.24-1.06A5.46,5.46,0,1,0,141,4.11c-1.49.35-3,.72-4.56,1.13A5.47,5.47,0,0,0,137.81,16Z"/><path d="M262.85,19.91C223.65-3.17,183.14.09,181.44.24a5.47,5.47,0,0,0,.95,10.89c.39,0,38.83-3.05,74.92,18.2a32.38,32.38,0,0,1,15.77,27.85V85.36a4.33,4.33,0,0,1-5.86,4c-2.35-.88-8.9-3.06-15-5.09l-.49-.16a5.46,5.46,0,0,0-3.45,10.37l.5.17c2.81.93,8.54,2.83,12.13,4.07-2.71,124.8,5.49,199.87,7.06,212.83-7.52,11.46-18.72,21.42-33.33,29.65a5.46,5.46,0,1,0,5.36,9.52c16.92-9.52,29.8-21.3,38.28-35a5.45,5.45,0,0,0,.77-3.61c-.1-.75-10.11-76.61-7.24-211.84A15.22,15.22,0,0,0,284,85.36v-8c.36.28.74.55,1.09.84a17.51,17.51,0,0,1,6.48,14.26c-1.12,26.1-2.53,93.52,8.37,155.83a20.75,20.75,0,0,1-12.63,22.89,5.47,5.47,0,0,0,2,10.55,5.42,5.42,0,0,0,2-.38,31.74,31.74,0,0,0,19.39-34.95C300,185.11,301.4,118.62,302.5,92.88A28.49,28.49,0,0,0,292,69.67c-2.38-1.93-5-3.82-7.67-5.63-.1-.07-.21-.11-.31-.17V57.18A43.34,43.34,0,0,0,262.85,19.91Z"/><path d="M232.54,90.25a5.36,5.36,0,0,0,1.19.13,5.47,5.47,0,0,0,1.18-10.8l-1.74-.38a5.46,5.46,0,1,0-2.31,10.68Z"/><path d="M106.52,29.33A5.46,5.46,0,0,0,101,19.91,43.33,43.33,0,0,0,79.83,57.18v6.7c-.11.06-.22.1-.32.16-2.72,1.81-5.3,3.7-7.67,5.63a28.49,28.49,0,0,0-10.5,23.21c.37,8.88.81,23.1.72,40.45a5.47,5.47,0,0,0,5.44,5.5h0A5.46,5.46,0,0,0,73,133.39c.09-17.57-.35-32-.73-41a17.51,17.51,0,0,1,6.48-14.26c.34-.29.73-.56,1.09-.84v8A15.2,15.2,0,0,0,92,100.29c2.87,135.23-7.14,211.09-7.24,211.84a5.45,5.45,0,0,0,.77,3.61c11.17,18.05,29.64,32.55,54.92,43.1a107.52,107.52,0,0,0,77.12,2.22A5.47,5.47,0,0,0,214,350.74a96.5,96.5,0,0,1-69.28-2c-22.36-9.33-38.77-21.82-48.81-37.16,1.43-11.86,8.42-75.76,7.52-182.19,6.3,3.72,16,7.12,30.21,7.12a52.55,52.55,0,0,0,16.73-2.82,5.46,5.46,0,1,0-3.48-10.36,41.72,41.72,0,0,1-13.25,2.25c-20.12,0-28.16-7.52-30.37-10.17q-.12-8.19-.31-16.69a253.52,253.52,0,0,1,58.6-13.66v97.36l-27.1,36.71a32.3,32.3,0,0,0-6.28,19.07V243a5.47,5.47,0,0,0,5.46,5.47h37.18a5.47,5.47,0,0,0,0-10.94h-31.7a21.33,21.33,0,0,1,4.13-11.85l28.17-38.15a5.52,5.52,0,0,0,1.07-3.25v-100c3.12-.16,6.28-.25,9.47-.25s6.27.11,9.46.27V89.6a5.47,5.47,0,0,0,10.94,0V85.09c3.31.34,6.64.73,10,1.24a5.47,5.47,0,0,0,1.62-10.82,217.11,217.11,0,0,0-32-2.47c-36.18,0-69,10.25-85.31,16.36a4.31,4.31,0,0,1-5.85-4V57.18A32.37,32.37,0,0,1,106.52,29.33Z"/><path d="M358.75,428.54H330.68c0-.34-.05-.66-.08-1a80.05,80.05,0,0,0-25.22-50.94c-8.08-7.56-17.57-15.93-28.23-24.89a5.47,5.47,0,0,0-7,8.37c10.51,8.83,19.85,17.07,27.79,24.5a69.19,69.19,0,0,1,21.81,44H187.38v-8.73a5.47,5.47,0,1,0-10.93,0v8.73H44.12a69.14,69.14,0,0,1,21.81-44c8.64-8.09,18.93-17.12,30.56-26.82a5.47,5.47,0,1,0-7-8.4c-11.79,9.84-22.24,19-31,27.24a80.15,80.15,0,0,0-25.22,50.94c0,.35,0,.67-.08,1H5.47a5.47,5.47,0,1,0,0,10.93H358.75a5.47,5.47,0,1,0,0-10.93Z"/><path d="M395.61,428.54h-6.56a5.47,5.47,0,0,0,0,10.93h6.56a5.47,5.47,0,0,0,0-10.93Z"/></g></g></svg>