<?xml version="1.0" ?><svg viewBox="0 0 203.54 442.66" xmlns="http://www.w3.org/2000/svg"><title/><g data-name="Layer 2" id="Layer_2"><g data-name="statue, liberty, landmark, york, symbol, america, new, freedom, nyc, tourism" id="statue_liberty_landmark_york_symbol_america_new_freedom_nyc_tourism"><path d="M52,139.7a5.51,5.51,0,0,0,5.4-6.36c-3.05-18.56-4-40.28-4.17-55.22a5.48,5.48,0,0,0-5.47-5.39H47.7a5.46,5.46,0,0,0-5.38,5.55c.22,15.32,1.15,37.61,4.31,56.84A5.48,5.48,0,0,0,52,139.7Z"/><path d="M46.73,55.36a5.47,5.47,0,0,0-5.46-5.47H16.11a5.47,5.47,0,0,0,0,10.94H41.27A5.47,5.47,0,0,0,46.73,55.36Z"/><path d="M28.66,66.45a5.45,5.45,0,0,0-5.46,5.36L23,82.06a5.46,5.46,0,0,0,5.36,5.57h.11a5.46,5.46,0,0,0,5.46-5.36L34.13,72a5.47,5.47,0,0,0-5.36-5.57Z"/><path d="M39.48,1.51A5.46,5.46,0,0,0,34.32.18c-.61.16-15.2,4.11-22.3,19l-.18.38a19.41,19.41,0,0,0,2.88,20.71,5.47,5.47,0,0,0,8.36-7,8.59,8.59,0,0,1-1.28-9.16l.12-.26a24.73,24.73,0,0,1,8.17-9.58,16.57,16.57,0,0,0,2,5.78l.14.23c2,3.38,5.75,9.66,3.4,13.65a5.47,5.47,0,0,0,9.43,5.54c5.62-9.56-.73-20.22-3.44-24.78l-.13-.23c-1-1.73-.87-5.71-.43-7.83A5.48,5.48,0,0,0,39.48,1.51Z"/><path d="M80.08,221.48l1.21-1.17a5.47,5.47,0,1,0-7.61-7.85l-1.2,1.16a5.47,5.47,0,1,0,7.6,7.86Z"/><path d="M0,437.19a5.47,5.47,0,0,0,5.47,5.47H168.82a5.47,5.47,0,1,0,0-10.93H150.27v-9.18a18.66,18.66,0,0,0-18.64-18.64h-.12l-6.33-95.11a25.31,25.31,0,0,0,6.68-17.13V276.35h0l36-38.88L188,254.34a6.65,6.65,0,0,1,.58,9.65l-30.9,33a6.6,6.6,0,0,1-9.28.41,5.47,5.47,0,0,0-7.29,8.16,17.48,17.48,0,0,0,24.54-1.09l30.9-33A17.57,17.57,0,0,0,195,246l-24.11-20.23a5.46,5.46,0,0,0-7.52.48l-31.51,34V242.41c.22.26.42.54.64.79a5.46,5.46,0,1,0,8.23-7.19,63,63,0,0,1-8-11.95,5.27,5.27,0,0,0-.83-1.15v-11a39.22,39.22,0,0,0-22.75-35.64c-1.42-.65-2.79-1.3-4.13-2,5.88-4.06,9.3-11,9.3-20V131.77l7.38.09h.07a5.47,5.47,0,0,0,.07-10.93l-8.15-.11a21.82,21.82,0,0,0-2.15-5.55l5.8-7.15a5.46,5.46,0,1,0-8.48-6.89l-4.92,6a21.87,21.87,0,0,0-6.25-2.68V97.3a5.47,5.47,0,1,0-10.93,0v7.3a21.87,21.87,0,0,0-6.25,2.68l-4.92-6a5.47,5.47,0,0,0-8.48,6.9l5.8,7.14a22.19,22.19,0,0,0-2.16,5.6l-2.74.06a5.47,5.47,0,0,0,.13,10.93h.13l1.85,0v20A55.08,55.08,0,0,1,64.35,146a5.47,5.47,0,0,0-9.27,1c-3.54,7.43-10.34,12.89-15.6,16.24a120.8,120.8,0,0,1-5.44-37v-25.3a5.47,5.47,0,1,0-10.93,0v25.3a130.21,130.21,0,0,0,6.7,42.47c-3.7,2.79-8.06,8.4-6.29,16.16,1.71,7.52,9,10.7,14.06,12V226a18.32,18.32,0,0,0,2.06,24.37c-.1,10.13-.79,26.48-2,48.66a5.46,5.46,0,1,0,10.91.62c1.29-22.63,2-39.28,2.08-49.58L66.1,235a5.47,5.47,0,0,0-7.61-7.85l-13.11,12.7a7.64,7.64,0,0,1-.52-2,7.46,7.46,0,0,1,2-5.9l.12-.12L79.41,199.5a5.47,5.47,0,1,0-7.72-7.74L48.51,214.84V192.32a5.47,5.47,0,0,0-5-5.45c-3-.25-8.76-2-9.32-4.42-.7-3,1.89-4.86,2.63-5.31,2.33-1,15.58-7.16,24.16-18.82,6.73,6.38,20.36,17.29,43.59,27.92a28.28,28.28,0,0,1,16.37,25.7v79.73a14.43,14.43,0,0,1-5,10.87L92.6,322.86l16.2-60.25a5.47,5.47,0,0,0-10.56-2.84L77.39,337.32A12,12,0,0,0,82,353l4.77,2.85a1.07,1.07,0,0,1,.54.92,1.1,1.1,0,0,1-.49,1L46.16,385A2,2,0,0,1,43,383.16c.7-9.68,1.76-24.69,2.85-41.25a5,5,0,0,0-.11-1.41l33.74-62.8a5.47,5.47,0,0,0-9.63-5.17l-40.46,75.3a5.46,5.46,0,0,0,2.23,7.4,5.55,5.55,0,0,0,2.34.64c-.72,10.55-1.38,19.81-1.86,26.5a12.84,12.84,0,0,0,6.41,12.12l.12.06L38,403.91h-.16a18.66,18.66,0,0,0-18.64,18.64v9.18H5.47A5.46,5.46,0,0,0,0,437.19ZM92.18,114.82a11.18,11.18,0,0,1,11.16,10.91,21.86,21.86,0,0,0-22.31,0A11.18,11.18,0,0,1,92.18,114.82ZM81,159.83V144.77a11.17,11.17,0,1,1,22.33,0v9.59c0,8.45-3.9,12.8-11.57,13-4.11-2.41-7.71-4.75-10.82-6.93A5.51,5.51,0,0,0,81,159.83ZM30.11,422.55a7.71,7.71,0,0,1,7.7-7.71H84.52a5.47,5.47,0,1,0,0-10.93H48.93l.63-8.51a13,13,0,0,0,2.69-1.35l40.63-27.24a12,12,0,0,0-.53-20.34l-4.77-2.84a1.1,1.1,0,0,1-.54-.85,1.07,1.07,0,0,1,.38-.93L114.84,318l5.71,85.9h-6.46a5.47,5.47,0,0,0,0,10.93h17.54a7.71,7.71,0,0,1,7.7,7.71v9.18H30.11Z"/><path d="M190.27,437.19a5.46,5.46,0,0,0,5.46,5.47h2.35a5.47,5.47,0,0,0,0-10.93h-2.35A5.45,5.45,0,0,0,190.27,437.19Z"/></g></g></svg>