<?xml version="1.0" ?><svg viewBox="0 0 432.09 373.51" xmlns="http://www.w3.org/2000/svg"><title/><g data-name="Layer 2" id="Layer_2"><g data-name="beijing, china, palace, architecture, building, city, forbidden, landmark, tourism, travel" id="beijing_china_palace_architecture_building_city_forbidden_landmark_tourism_travel"><path d="M159.71,289H276.12a5.46,5.46,0,0,0,5.47-5.46V262.75a5.47,5.47,0,0,0-5.47-5.47H265.76a5.47,5.47,0,1,0,0,10.93h4.89v9.88H165.18v-9.88h48.64a5.47,5.47,0,0,0,0-10.93H159.71a5.46,5.46,0,0,0-5.46,5.47v20.81A5.45,5.45,0,0,0,159.71,289Z"/><path d="M236,268.21h2.22a5.47,5.47,0,1,0,0-10.93H236a5.47,5.47,0,1,0,0,10.93Z"/><path d="M117.72,10.93H240A5.47,5.47,0,1,0,240,0H117.72a14.47,14.47,0,0,0-14.45,14.46V28.09c-1.78,2.35-4.6,5.92-8.4,10.19a5.47,5.47,0,1,0,8.18,7.26c4.65-5.24,7.94-9.48,9.77-12H326.57c5.4,6.93,23,28.26,46.79,44.91h-5.94a5.47,5.47,0,0,0,0,10.93h25.41a5.47,5.47,0,0,0,2.51-10.33C366.56,64.24,343.25,36.92,336,27.88V14.46A14.48,14.48,0,0,0,321.56,0H296a5.47,5.47,0,0,0,0,10.93h25.55a3.53,3.53,0,0,1,3.53,3.53v8.18H114.2V14.46A3.53,3.53,0,0,1,117.72,10.93Z"/><path d="M270.9,10.93A5.47,5.47,0,0,0,270.9,0h-.56a5.47,5.47,0,1,0,0,10.93Z"/><path d="M199.3,160.33H240a5.46,5.46,0,0,0,5.47-5.46V107.53a5.47,5.47,0,0,0-5.47-5.47H199.3a5.47,5.47,0,0,0-5.47,5.47v47.34A5.46,5.46,0,0,0,199.3,160.33ZM204.76,113h29.76V149.4H204.76Z"/><path d="M5.47,373.51h7.78a5.47,5.47,0,0,0,0-10.93H5.47a5.47,5.47,0,1,0,0,10.93Z"/><path d="M432.09,368a5.46,5.46,0,0,0-5.46-5.46H390.25V241.68a5.46,5.46,0,0,0-5.46-5.46h-6.44V189.56h14.48a5.47,5.47,0,0,0,2.65-10.25c-28.73-15.88-52-40.36-59.46-48.7V89.41h9.15a5.47,5.47,0,1,0,0-10.93H65.91q7.73-5.31,15.14-11.54a5.47,5.47,0,1,0-7-8.37A176.39,176.39,0,0,1,43.88,79.12a5.47,5.47,0,0,0,2.57,10.29h56.82v41.2c-7.48,8.34-30.74,32.82-59.46,48.7a5.47,5.47,0,0,0,2.64,10.25H60.93v46.66H51.05a5.47,5.47,0,0,0-5.47,5.46v120.9H36.52a5.47,5.47,0,1,0,0,10.93H426.63A5.47,5.47,0,0,0,432.09,368ZM367.42,236.22H356.09V189.56h11.33Zm-31.4,0V189.56h9.13v46.66ZM325.09,125.73H293.63V89.41h31.46Zm-53.72,0V89.41H282.7v36.32Zm-114.78,0V89.41h11.33v36.32ZM145.65,89.41v36.32H114.2V89.41Zm-33.12,47.25h69.6a5.47,5.47,0,1,0,0-10.93h-3.28V89.41h81.58v36.32h-1.91a5.47,5.47,0,1,0,0,10.93h68.24a270.45,270.45,0,0,0,47,42H321.56a5.47,5.47,0,1,0,0,10.93h3.53v46.66H293.63V189.56h4a5.47,5.47,0,1,0,0-10.93H65.56A270.85,270.85,0,0,0,112.53,136.66Zm158.84,99.56V189.56H282.7v46.66Zm-92.52,0V189.56h81.58v46.66Zm-22.26,0V189.56h11.33v46.66Zm-42.39,0V189.56h31.45v46.66Zm-20.07,0V189.56h9.14v46.66ZM71.87,189.56H83.2v46.66H71.87ZM56.51,247.15H379.32V362.58H328.15v-41.1a5.46,5.46,0,0,0-5.46-5.47H276.12a5.47,5.47,0,0,0-5.47,5.47v41.1H254.13v-56a5.46,5.46,0,0,0-5.46-5.47H187.16a5.47,5.47,0,0,0-5.46,5.47v56H165.18v-41.1a5.47,5.47,0,0,0-5.47-5.47H113.15a5.47,5.47,0,0,0-5.47,5.47v41.1H56.51ZM317.22,362.58H281.59V326.94h35.63Zm-74,0H192.63V312H243.2Zm-88.95,0H118.61V326.94h35.64Z"/></g></g></svg>