<?xml version="1.0" ?><svg viewBox="0 0 228.34 447.48" xmlns="http://www.w3.org/2000/svg"><title/><g data-name="Layer 2" id="Layer_2"><g data-name="big, ben, london, tower, clock, architecture, travel, landmark, britain" id="big_ben_london_tower_clock_architecture_travel_landmark_britain"><path d="M21,313.45H183.85a5.46,5.46,0,0,0,5.47-5.46V191.59a5.47,5.47,0,0,0-5.47-5.47H141.64V173.26a5.47,5.47,0,0,0-10.93,0v12.86H107.89V173.26a5.47,5.47,0,0,0-10.93,0v12.86H74.15V173.26a5.47,5.47,0,0,0-10.94,0v12.86H21a5.47,5.47,0,0,0-5.46,5.47v36.64a5.47,5.47,0,1,0,10.93,0V197.05H37.29v87.71a5.47,5.47,0,0,0,10.93,0V197.05H156.63v87.71a5.47,5.47,0,0,0,10.93,0V197.05h10.82V302.52H26.47V249.79a5.47,5.47,0,1,0-10.93,0V308A5.46,5.46,0,0,0,21,313.45Z"/><path d="M68.39,228.14a5.47,5.47,0,0,0-7.25,2.68,45,45,0,0,0-4.14,19,45.43,45.43,0,1,0,45.43-45.43A45,45,0,0,0,83,208.72a5.46,5.46,0,1,0,4.68,9.87,34.16,34.16,0,0,1,14.75-3.3,34.48,34.48,0,1,1-31.36,20.1A5.47,5.47,0,0,0,68.39,228.14Z"/><path d="M34.63,176.8a5.47,5.47,0,0,0,5.47-5.46V159.28H164.75v12.06a5.47,5.47,0,0,0,10.94,0V153.81a5.47,5.47,0,0,0-5.47-5.46H34.63a5.47,5.47,0,0,0-5.46,5.46v17.53A5.47,5.47,0,0,0,34.63,176.8Z"/><path d="M46.86,140.37a5.47,5.47,0,0,0,5.47-5.47v-5.24H152.52v5.24a5.47,5.47,0,1,0,10.93,0V124.19a5.45,5.45,0,0,0-5.46-5.46H146.07V88.44s0,0,0-.07c0-.21,0-.42-.07-.64a3.25,3.25,0,0,0-.06-.45,3.36,3.36,0,0,0-.14-.45,6,6,0,0,0-.2-.6s0,0,0-.07l-38.17-83a5.47,5.47,0,0,0-9.93,0L87,26a5.47,5.47,0,0,0,9.93,4.57l5.54-12L132.07,83H72.78l5.39-11.72a5.46,5.46,0,1,0-9.93-4.56L59.29,86.16s0,0,0,.07a4.27,4.27,0,0,0-.21.6,3.88,3.88,0,0,0-.14.45c0,.14,0,.3-.06.45a4.76,4.76,0,0,0-.06.64s0,0,0,.07v30.29H46.86a5.46,5.46,0,0,0-5.46,5.46V134.9A5.47,5.47,0,0,0,46.86,140.37ZM69.72,93.91h65.41v24.82H69.72Z"/><path d="M79.28,55.78a5.47,5.47,0,0,0,7.25-2.68l.7-1.52A5.47,5.47,0,1,0,77.3,47l-.7,1.52A5.47,5.47,0,0,0,79.28,55.78Z"/><path d="M102.43,227.65A5.46,5.46,0,0,0,97,233.11v16.68a5.46,5.46,0,0,0,5.47,5.46h10.51a5.47,5.47,0,0,0,0-10.93h-5V233.11A5.45,5.45,0,0,0,102.43,227.65Z"/><path d="M5.47,447.48h186.6a5.47,5.47,0,1,0,0-10.93H175.69V398.79a5.47,5.47,0,0,0-10.94,0v37.76H141.64V398.79a5.47,5.47,0,0,0-10.93,0v37.76H107.89V398.79a5.47,5.47,0,0,0-10.93,0v37.76H74.15V398.79a5.47,5.47,0,0,0-10.94,0v37.76H40.1V380.47H183.85a5.47,5.47,0,0,0,0-10.94h-8.16V328.92a5.47,5.47,0,1,0-10.94,0v40.61H141.64V331.78a5.47,5.47,0,1,0-10.93,0v37.75H107.89V331.78a5.47,5.47,0,1,0-10.93,0v37.75H74.15V331.78a5.47,5.47,0,1,0-10.94,0v37.75H40.1V328.92a5.47,5.47,0,1,0-10.93,0v40.61H21a5.47,5.47,0,0,0,0,10.94h8.17v56.08H5.47a5.47,5.47,0,1,0,0,10.93Z"/><path d="M218.88,447.48h4a5.47,5.47,0,0,0,0-10.93h-4a5.47,5.47,0,1,0,0,10.93Z"/></g></g></svg>