<?xml version="1.0" ?><svg viewBox="0 0 427.82 332.51" xmlns="http://www.w3.org/2000/svg"><title/><g data-name="Layer 2" id="Layer_2"><g data-name="china, travel, mountain, wall, beijing, landmark, great, chinese, tourism, architecture" id="china_travel_mountain_wall_beijing_landmark_great_chinese_tourism_architecture"><path d="M197.92,11.66H178.27a5.47,5.47,0,0,0-5.47,5.46V131.3a5.47,5.47,0,0,0,10.94,0V114.39A157.74,157.74,0,0,0,231,159.68a5.46,5.46,0,1,0,5.77-9.28,146.89,146.89,0,0,1-49.56-51.29h28.71a5.47,5.47,0,1,0,0-10.93H203.81v-19a3.94,3.94,0,0,1,7.88,0v5.89a5.47,5.47,0,0,0,10.93,0V69.23a14.88,14.88,0,1,0-29.75,0v19h-9.13V22.59h8.71v9a5.47,5.47,0,0,0,5.47,5.46h19.65A5.47,5.47,0,0,0,223,31.62v-9h8.72V93.64a3,3,0,0,0,0,.31,5.61,5.61,0,0,0,.06.59,4.37,4.37,0,0,0,.12.52,4.74,4.74,0,0,0,.15.5c.07.19.16.36.24.54s.08.19.13.28c15.36,26.5,38.17,45.28,67.81,55.83a5.31,5.31,0,0,0,1.83.32A5.46,5.46,0,0,0,304,141.92c-26.67-9.5-47.26-26.26-61.27-49.81v-75a5.47,5.47,0,0,0-5.47-5.46H217.57a5.46,5.46,0,0,0-5.46,5.46v9h-8.72v-9A5.47,5.47,0,0,0,197.92,11.66Z"/><path d="M341.46,93.64A5.45,5.45,0,0,0,336,88.18H265.45a5.47,5.47,0,0,0,0,10.93H336A5.46,5.46,0,0,0,341.46,93.64Z"/><path d="M115.32,106.14a5.46,5.46,0,0,0,5.46-5.46V5.47A5.46,5.46,0,0,0,115.32,0h-22a5.47,5.47,0,0,0-5.47,5.47v15h-11v-15A5.46,5.46,0,0,0,71.38,0h-22a5.47,5.47,0,0,0-5.47,5.47v15h-11v-15A5.46,5.46,0,0,0,27.44,0h-22A5.47,5.47,0,0,0,0,5.47V44.9a5.47,5.47,0,0,0,10.93,0v-34H22V26a5.47,5.47,0,0,0,5.47,5.47h22A5.46,5.46,0,0,0,54.87,26v-15h11V26a5.47,5.47,0,0,0,5.47,5.47h22A5.47,5.47,0,0,0,98.81,26v-15h11v89.75A5.47,5.47,0,0,0,115.32,106.14Z"/><path d="M42.38,69.64V88.1a5.46,5.46,0,0,0,5.47,5.46H72.94A5.45,5.45,0,0,0,78.4,88.1V69.64a18,18,0,0,0-36,0Zm25.09,0v13H53.31v-13a7.08,7.08,0,0,1,14.16,0Z"/><path d="M305.19,169.24l-1.14.33a5.47,5.47,0,0,0,1.44,10.74,5.7,5.7,0,0,0,1.46-.2l1.31-.37a5.47,5.47,0,0,0-3.07-10.5Z"/><path d="M422.35,40H402.7a5.47,5.47,0,0,0-5.47,5.46v9h-8.72v-9A5.46,5.46,0,0,0,383.05,40H363.4a5.47,5.47,0,0,0-5.47,5.46v75.74c-1.2,3.89-9.13,26.44-34.6,40.6A5.46,5.46,0,0,0,326,172a5.41,5.41,0,0,0,2.65-.69,85.74,85.74,0,0,0,38.69-43.9h48c-13.5,50-49.23,74.9-106.33,74.06A168,168,0,0,1,228.38,179a201.79,201.79,0,0,0,44.49,5.45q6,0,11.71-.47a5.46,5.46,0,1,0-.88-10.89c-27.1,2.18-59.73-4-97-18.52-23.88-13.12-43.91-22.44-58.2-28.56a117.79,117.79,0,0,0-46.58-9.51h-71V69.75A5.47,5.47,0,1,0,0,69.75v50.6a5.16,5.16,0,0,0,.08.8A5.29,5.29,0,0,0,0,122v60.92c0,82.51,67.13,149.64,149.65,149.64H235c1.44,0,2.86,0,4.3-.07l.28,0H377.8a5.47,5.47,0,1,0,0-10.93H308.93a193.94,193.94,0,0,0,52.85-26.23,190.72,190.72,0,0,0,56.35-62.88,77.74,77.74,0,0,0,9.69-37.6V45.43A5.47,5.47,0,0,0,422.35,40ZM368.86,50.9h8.72v9a5.47,5.47,0,0,0,5.47,5.47H402.7a5.46,5.46,0,0,0,5.46-5.47v-9h8.73v65.59h-9.14V97.54a14.88,14.88,0,1,0-29.75,0v18.95h-9.14Zm28,65.59h-7.89V97.54a3.95,3.95,0,1,1,7.89,0Zm20.07,78.34a66.81,66.81,0,0,1-8.32,32.3C389,262.41,340.51,321.58,235,321.58H149.65c-76.49,0-138.72-62.23-138.72-138.71V127.42h71a106.84,106.84,0,0,1,42.28,8.63c20.66,8.84,53.52,24.5,92.74,48.86,28.2,17.51,60,27,91.91,27.51,37.91.54,84.32-9.9,108-57.86Z"/><path d="M87.24,187.58a5.47,5.47,0,1,0,10.93,0V177.3h17.15a5.47,5.47,0,0,0,0-10.93H39.94a5.47,5.47,0,1,0,0,10.93h47.3Z"/><path d="M146.61,208.85a5.47,5.47,0,0,0-5.47-5.47H58.05a5.47,5.47,0,0,0,0,10.93h83.09A5.46,5.46,0,0,0,146.61,208.85Z"/><path d="M144.22,255.52H108.34V241.3a5.47,5.47,0,0,0-10.94,0v14.22H81.21a5.47,5.47,0,0,0,0,10.93h63a5.47,5.47,0,0,0,0-10.93Z"/><path d="M181,203.38h-9.54a5.47,5.47,0,1,0,0,10.93H181a5.47,5.47,0,1,0,0-10.93Z"/><path d="M180.44,227.56A5.47,5.47,0,0,0,175,233v21.26a5.47,5.47,0,1,0,10.93,0V233A5.47,5.47,0,0,0,180.44,227.56Z"/><path d="M329.41,242.68c-1.32.35-2.71.67-4.13,1a5.46,5.46,0,0,0,1.13,10.81,5.52,5.52,0,0,0,1.14-.12c1.59-.34,3.15-.71,4.64-1.1a5.46,5.46,0,1,0-2.78-10.57Z"/><path d="M295.17,246.29a277.81,277.81,0,0,1-51.23-5.56,5.47,5.47,0,0,0-2.37,10.68c.47.1,5.68,1.24,13.76,2.48l-.69,9.29a5.46,5.46,0,0,0,5.05,5.85l.41,0a5.46,5.46,0,0,0,5.44-5.06l.64-8.63a268.08,268.08,0,0,0,28.92,1.87h0a5.47,5.47,0,0,0,0-10.94Z"/><path d="M268.28,282.56c-21,1-53.92.23-54.25.23a5.47,5.47,0,1,0-.24,10.93c.2,0,12.27.27,26.52.27,9.48,0,19.92-.12,28.46-.51a5.47,5.47,0,1,0-.49-10.92Z"/><path d="M415.8,321.54h-6.3a5.47,5.47,0,1,0,0,10.93h6.3a5.47,5.47,0,0,0,0-10.93Z"/></g></g></svg>